<!-- Premium Alpha Discovery Icon -->
<svg xmlns="http://www.w3.org/2000/svg" width="42" height="42" viewBox="0 0 42 42" fill="none">
  <!-- Background circle with gradient -->
  <defs>
    <linearGradient id="alphaGradient" x1="0%" y1="0%" x2="100%" y2="100%">
      <stop offset="0%" style="stop-color:#538CFF;stop-opacity:0.1" />
      <stop offset="100%" style="stop-color:#C0B1FF;stop-opacity:0.1" />
    </linearGradient>
    <linearGradient id="alphaStroke" x1="0%" y1="0%" x2="100%" y2="100%">
      <stop offset="0%" style="stop-color:#538CFF" />
      <stop offset="100%" style="stop-color:#C0B1FF" />
    </linearGradient>
  </defs>
  
  <!-- Background -->
  <circle cx="21" cy="21" r="20" fill="url(#alphaGradient)" stroke="url(#alphaStroke)" stroke-width="1.5"/>
  
  <!-- Sophisticated chart/analytics icon -->
  <g transform="translate(8, 8)">
    <!-- Grid lines -->
    <path d="M2 20 L24 20" stroke="#538CFF" stroke-width="1" opacity="0.3"/>
    <path d="M2 15 L24 15" stroke="#538CFF" stroke-width="1" opacity="0.3"/>
    <path d="M2 10 L24 10" stroke="#538CFF" stroke-width="1" opacity="0.3"/>
    <path d="M2 5 L24 5" stroke="#538CFF" stroke-width="1" opacity="0.3"/>
    
    <!-- Main trend line -->
    <path d="M3 18 L7 12 L11 8 L15 6 L19 4 L23 2" stroke="url(#alphaStroke)" stroke-width="2.5" fill="none" stroke-linecap="round"/>
    
    <!-- Data points -->
    <circle cx="3" cy="18" r="1.5" fill="#538CFF"/>
    <circle cx="7" cy="12" r="1.5" fill="#538CFF"/>
    <circle cx="11" cy="8" r="1.5" fill="#538CFF"/>
    <circle cx="15" cy="6" r="1.5" fill="#538CFF"/>
    <circle cx="19" cy="4" r="1.5" fill="#538CFF"/>
    <circle cx="23" cy="2" r="1.5" fill="#C0B1FF"/>
    
    <!-- Alpha symbol -->
    <text x="13" y="22" font-family="Inter, sans-serif" font-size="8" font-weight="700" fill="#538CFF" text-anchor="middle">α</text>
  </g>
</svg>