<!-- MEGA PREMIUM Alpha Discovery Icon -->
<svg xmlns="http://www.w3.org/2000/svg" width="42" height="42" viewBox="0 0 42 42" fill="none">
  <defs>
    <linearGradient id="alphaGradient" x1="0%" y1="0%" x2="100%" y2="100%">
      <stop offset="0%" style="stop-color:#538CFF;stop-opacity:0.25" />
      <stop offset="100%" style="stop-color:#C0B1FF;stop-opacity:0.25" />
    </linearGradient>
    <linearGradient id="alphaStroke" x1="0%" y1="0%" x2="100%" y2="100%">
      <stop offset="0%" style="stop-color:#538CFF" />
      <stop offset="100%" style="stop-color:#C0B1FF" />
    </linearGradient>
    <filter id="alphaGlow">
      <feGaussianBlur stdDeviation="3" result="coloredBlur"/>
      <feMerge> 
        <feMergeNode in="coloredBlur"/>
        <feMergeNode in="SourceGraphic"/>
      </feMerge>
    </filter>
  </defs>
  
  <!-- Background with premium styling -->
  <circle cx="21" cy="21" r="20" fill="url(#alphaGradient)" stroke="url(#alphaStroke)" stroke-width="2.5"/>
  
  <g transform="translate(2, 2)">
    <!-- Advanced analytics dashboard -->
    <rect x="2" y="2" width="36" height="28" rx="6" fill="rgba(255,255,255,0.98)" stroke="url(#alphaStroke)" stroke-width="2"/>
    
    <!-- Grid system -->
    <path d="M4 8 L36 8" stroke="#538CFF" stroke-width="1" opacity="0.4"/>
    <path d="M4 12 L36 12" stroke="#538CFF" stroke-width="1" opacity="0.4"/>
    <path d="M4 16 L36 16" stroke="#538CFF" stroke-width="1" opacity="0.4"/>
    <path d="M4 20 L36 20" stroke="#538CFF" stroke-width="1" opacity="0.4"/>
    <path d="M4 24 L36 24" stroke="#538CFF" stroke-width="1" opacity="0.4"/>
    <path d="M4 28 L36 28" stroke="#538CFF" stroke-width="1" opacity="0.4"/>
    
    <!-- Primary trend line with glow -->
    <path d="M6 26 L12 20 L18 16 L24 12 L30 8 L34 6" stroke="url(#alphaStroke)" stroke-width="4" fill="none" stroke-linecap="round" filter="url(#alphaGlow)"/>
    
    <!-- Secondary trend line -->
    <path d="M6 24 L11 19 L17 15 L23 11 L29 7 L33 5" stroke="#C0B1FF" stroke-width="2.5" fill="none" stroke-linecap="round" opacity="0.8"/>
    
    <!-- Data points with different sizes and colors -->
    <circle cx="6" cy="26" r="3" fill="#538CFF"/>
    <circle cx="12" cy="20" r="2.5" fill="#538CFF"/>
    <circle cx="18" cy="16" r="2.5" fill="#538CFF"/>
    <circle cx="24" cy="12" r="2.5" fill="#538CFF"/>
    <circle cx="30" cy="8" r="2.5" fill="#538CFF"/>
    <circle cx="34" cy="6" r="3.5" fill="#C0B1FF"/>
    
    <!-- Alpha symbol with premium badge -->
    <circle cx="19" cy="32" r="8" fill="url(#alphaGradient)" stroke="url(#alphaStroke)" stroke-width="2.5"/>
    <text x="19" y="37" font-family="Inter, sans-serif" font-size="14" font-weight="900" fill="#538CFF" text-anchor="middle">α</text>
    
    <!-- Performance indicators -->
    <rect x="2" y="32" width="10" height="5" rx="2.5" fill="#538CFF" opacity="0.95"/>
    <text x="7" y="35" font-family="Inter, sans-serif" font-size="5" font-weight="800" fill="white" text-anchor="middle">+25%</text>
    
    <rect x="28" y="32" width="10" height="5" rx="2.5" fill="#C0B1FF" opacity="0.95"/>
    <text x="33" y="35" font-family="Inter, sans-serif" font-size="5" font-weight="800" fill="white" text-anchor="middle">EDGE</text>
  </g>
</svg>