<!-- Ultra Premium Alpha Discovery Icon -->
<svg xmlns="http://www.w3.org/2000/svg" width="42" height="42" viewBox="0 0 42 42" fill="none">
  <defs>
    <linearGradient id="alphaGradient" x1="0%" y1="0%" x2="100%" y2="100%">
      <stop offset="0%" style="stop-color:#538CFF;stop-opacity:0.15" />
      <stop offset="100%" style="stop-color:#C0B1FF;stop-opacity:0.15" />
    </linearGradient>
    <linearGradient id="alphaStroke" x1="0%" y1="0%" x2="100%" y2="100%">
      <stop offset="0%" style="stop-color:#538CFF" />
      <stop offset="100%" style="stop-color:#C0B1FF" />
    </linearGradient>
    <filter id="glow">
      <feGaussianBlur stdDeviation="2" result="coloredBlur"/>
      <feMerge> 
        <feMergeNode in="coloredBlur"/>
        <feMergeNode in="SourceGraphic"/>
      </feMerge>
    </filter>
  </defs>
  
  <!-- Background with subtle pattern -->
  <circle cx="21" cy="21" r="20" fill="url(#alphaGradient)" stroke="url(#alphaStroke)" stroke-width="2"/>
  
  <g transform="translate(6, 6)">
    <!-- Advanced analytics dashboard -->
    <rect x="2" y="2" width="28" height="20" rx="3" fill="rgba(255,255,255,0.8)" stroke="url(#alphaStroke)" stroke-width="1.5"/>
    
    <!-- Grid system -->
    <path d="M4 8 L28 8" stroke="#538CFF" stroke-width="0.8" opacity="0.4"/>
    <path d="M4 12 L28 12" stroke="#538CFF" stroke-width="0.8" opacity="0.4"/>
    <path d="M4 16 L28 16" stroke="#538CFF" stroke-width="0.8" opacity="0.4"/>
    <path d="M4 20 L28 20" stroke="#538CFF" stroke-width="0.8" opacity="0.4"/>
    
    <!-- Primary trend line with glow -->
    <path d="M5 18 L9 14 L13 10 L17 7 L21 5 L25 3" stroke="url(#alphaStroke)" stroke-width="3" fill="none" stroke-linecap="round" filter="url(#glow)"/>
    
    <!-- Secondary trend line -->
    <path d="M5 16 L8 13 L12 9 L16 6 L20 4 L24 2" stroke="#C0B1FF" stroke-width="2" fill="none" stroke-linecap="round" opacity="0.7"/>
    
    <!-- Data points with different sizes -->
    <circle cx="5" cy="18" r="2" fill="#538CFF"/>
    <circle cx="9" cy="14" r="1.5" fill="#538CFF"/>
    <circle cx="13" cy="10" r="1.5" fill="#538CFF"/>
    <circle cx="17" cy="7" r="1.5" fill="#538CFF"/>
    <circle cx="21" cy="5" r="1.5" fill="#538CFF"/>
    <circle cx="25" cy="3" r="2.5" fill="#C0B1FF"/>
    
    <!-- Alpha symbol with premium styling -->
    <circle cx="15" cy="26" r="6" fill="url(#alphaGradient)" stroke="url(#alphaStroke)" stroke-width="1.5"/>
    <text x="15" y="30" font-family="Inter, sans-serif" font-size="10" font-weight="800" fill="#538CFF" text-anchor="middle">α</text>
    
    <!-- Performance indicators -->
    <rect x="4" y="24" width="6" height="3" rx="1.5" fill="#538CFF" opacity="0.8"/>
    <text x="7" y="26" font-family="Inter, sans-serif" font-size="3" font-weight="600" fill="white" text-anchor="middle">+25%</text>
  </g>
</svg>