<!-- Ultra Premium Alpha Discovery Icon -->
<svg xmlns="http://www.w3.org/2000/svg" width="42" height="42" viewBox="0 0 42 42" fill="none">
  <defs>
    <linearGradient id="alphaGradient" x1="0%" y1="0%" x2="100%" y2="100%">
      <stop offset="0%" style="stop-color:#538CFF;stop-opacity:0.2" />
      <stop offset="100%" style="stop-color:#C0B1FF;stop-opacity:0.2" />
    </linearGradient>
    <linearGradient id="alphaStroke" x1="0%" y1="0%" x2="100%" y2="100%">
      <stop offset="0%" style="stop-color:#538CFF" />
      <stop offset="100%" style="stop-color:#C0B1FF" />
    </linearGradient>
    <filter id="alphaGlow">
      <feGaussianBlur stdDeviation="2" result="coloredBlur"/>
      <feMerge> 
        <feMergeNode in="coloredBlur"/>
        <feMergeNode in="SourceGraphic"/>
      </feMerge>
    </filter>
  </defs>
  
  <!-- Background with premium styling -->
  <circle cx="21" cy="21" r="20" fill="url(#alphaGradient)" stroke="url(#alphaStroke)" stroke-width="2"/>
  
  <g transform="translate(4, 4)">
    <!-- Advanced analytics dashboard -->
    <rect x="2" y="2" width="32" height="24" rx="4" fill="rgba(255,255,255,0.95)" stroke="url(#alphaStroke)" stroke-width="1.5"/>
    
    <!-- Grid system -->
    <path d="M4 8 L32 8" stroke="#538CFF" stroke-width="0.8" opacity="0.3"/>
    <path d="M4 12 L32 12" stroke="#538CFF" stroke-width="0.8" opacity="0.3"/>
    <path d="M4 16 L32 16" stroke="#538CFF" stroke-width="0.8" opacity="0.3"/>
    <path d="M4 20 L32 20" stroke="#538CFF" stroke-width="0.8" opacity="0.3"/>
    <path d="M4 24 L32 24" stroke="#538CFF" stroke-width="0.8" opacity="0.3"/>
    
    <!-- Primary trend line with glow -->
    <path d="M6 22 L10 18 L14 14 L18 10 L22 8 L26 6 L30 4" stroke="url(#alphaStroke)" stroke-width="3" fill="none" stroke-linecap="round" filter="url(#alphaGlow)"/>
    
    <!-- Secondary trend line -->
    <path d="M6 20 L9 17 L13 13 L17 9 L21 7 L25 5 L29 3" stroke="#C0B1FF" stroke-width="2" fill="none" stroke-linecap="round" opacity="0.8"/>
    
    <!-- Data points with different sizes and colors -->
    <circle cx="6" cy="22" r="2.5" fill="#538CFF"/>
    <circle cx="10" cy="18" r="2" fill="#538CFF"/>
    <circle cx="14" cy="14" r="2" fill="#538CFF"/>
    <circle cx="18" cy="10" r="2" fill="#538CFF"/>
    <circle cx="22" cy="8" r="2" fill="#538CFF"/>
    <circle cx="26" cy="6" r="2" fill="#538CFF"/>
    <circle cx="30" cy="4" r="3" fill="#C0B1FF"/>
    
    <!-- Alpha symbol with premium badge -->
    <circle cx="17" cy="28" r="7" fill="url(#alphaGradient)" stroke="url(#alphaStroke)" stroke-width="2"/>
    <text x="17" y="32" font-family="Inter, sans-serif" font-size="12" font-weight="900" fill="#538CFF" text-anchor="middle">α</text>
    
    <!-- Performance indicators -->
    <rect x="2" y="28" width="8" height="4" rx="2" fill="#538CFF" opacity="0.9"/>
    <text x="6" y="31" font-family="Inter, sans-serif" font-size="4" font-weight="700" fill="white" text-anchor="middle">+25%</text>
    
    <rect x="26" y="28" width="8" height="4" rx="2" fill="#C0B1FF" opacity="0.9"/>
    <text x="30" y="31" font-family="Inter, sans-serif" font-size="4" font-weight="700" fill="white" text-anchor="middle">EDGE</text>
  </g>
</svg>